<svg width="77" height="115" viewBox="0 0 77 115" fill="none" xmlns="http://www.w3.org/2000/svg">
<g clip-path="url(#clip0_1_2616)">
<path d="M6.87246 57.7462C7.17814 57.5581 7.50204 57.3893 7.83606 57.2598C8.54313 56.9859 9.02898 56.4872 9.20623 55.774C9.46557 54.7283 10.2759 54.2668 11.154 54.152C12.8427 53.9318 13.8967 52.8093 14.7965 51.6338C15.4678 50.7564 15.7216 49.5519 15.3053 48.3736C15.2094 48.1014 15.2016 47.8821 15.3113 47.5642C15.4491 47.1664 15.2957 46.6617 15.2453 46.2055C14.7507 41.7307 12.9858 37.7312 10.6452 33.9486C10.424 33.591 10.2028 33.2341 9.97943 32.8785C9.4054 31.9639 9.16912 30.9765 9.03416 29.8922C8.74884 27.5988 8.66291 25.2733 7.96461 23.0331C7.24281 20.7178 7.2951 18.3578 7.7173 15.9736C7.93526 14.742 7.88566 13.4649 8.01331 12.2141C8.30516 9.34487 8.97556 6.57159 10.376 4.02672C11 2.89284 11.7286 1.81464 12.4468 0.735308C12.7427 0.29062 13.0928 -0.179147 13.7656 0.0686138C14.1194 0.198961 14.5902 1.09958 14.5612 1.58881C14.5529 1.72737 14.4841 1.86772 14.4987 2.00122C14.5294 2.28204 14.596 2.55882 14.6493 2.83729C14.7286 3.25431 14.8329 3.66874 14.8819 4.08903C14.9272 4.47771 14.9159 4.8737 14.926 5.26642C14.9375 5.72483 14.9709 6.18459 14.9475 6.6412C14.9089 7.39922 14.8594 8.12563 15.2384 8.85654C15.443 9.25163 15.3284 9.80136 15.4202 10.2689C15.5169 10.7622 15.6987 11.238 15.8248 11.7258C16.0148 12.4581 16.2241 13.1881 16.3613 13.931C16.6008 15.2235 16.7531 16.5332 17.0129 17.8216C17.3521 19.5042 17.7705 21.1708 18.134 22.8489C18.2895 23.567 18.379 24.2994 18.5253 25.0197C18.5757 25.268 18.7175 25.4965 18.8001 25.7397C18.9419 26.1587 19.0723 26.5812 19.2007 27.0043C19.2232 27.0786 19.1907 27.1741 19.2223 27.2415C19.6384 28.1216 20.0634 28.9971 20.4822 29.8758C20.7099 30.3529 20.932 30.8334 21.1522 31.3138C21.1935 31.4038 21.2059 31.5071 21.2481 31.5966C22.1356 33.465 23.0818 35.3087 23.8999 37.207C24.8029 39.3023 25.4146 41.4804 25.6834 43.7724C25.9578 46.108 26.4158 48.4238 26.8517 50.7375C26.9857 51.4482 27.2941 52.1296 27.5574 52.8106C27.7272 53.2502 28.3503 53.4847 28.8357 53.3713C31.4071 52.7711 33.9874 52.1223 36.6387 52.1682C38.2263 52.1957 39.8052 52.5913 41.3925 52.7887C46.195 53.3852 50.9964 53.9881 55.8034 54.5447C59.1902 54.937 62.584 55.01 65.9713 54.5034C66.1489 54.4768 66.3292 54.4666 66.5091 54.4616C66.561 54.4602 66.6142 54.5024 66.7982 54.581C66.5403 54.7631 66.3829 54.9495 66.1906 54.998C65.3408 55.2114 64.4836 55.3995 63.6237 55.5694C62.9038 55.7116 62.1609 55.7589 61.4547 55.9484C59.8295 56.3852 58.2142 56.2118 56.583 56.0227C55.2216 55.8649 53.8519 55.7395 52.4831 55.7033C51.9647 55.6896 51.4461 56.0145 50.9142 56.096C50.3356 56.1851 49.7414 56.1837 49.1536 56.1988C48.4823 56.2163 47.8101 56.2043 47.1388 56.2121C46.4207 56.2209 45.6878 56.1492 44.9885 56.2708C43.8561 56.4682 42.7447 56.7912 41.6265 57.0674C40.5111 57.3432 39.3987 57.6331 38.2819 57.9053C37.4941 58.0975 36.7016 58.2731 35.9095 58.4471C35.7972 58.4719 35.6521 58.4879 35.5585 58.4389C35.1258 58.2108 34.8868 58.3696 34.7886 58.8729C34.2866 58.721 33.8337 58.5839 33.3804 58.4467C33.3455 58.4994 33.3101 58.5522 33.2753 58.6049C35.1965 59.8939 37.0834 61.2383 39.0486 62.4561C41.0272 63.6817 43.2861 64.2186 45.5712 64.6453C45.5606 64.7408 45.5501 64.8362 45.5395 64.9321C45.0297 65.0084 44.4974 65.2175 44.0152 65.1345C42.8322 64.9307 41.6732 64.5903 40.5035 64.309C40.2699 64.253 40.074 64.1401 39.8386 64.4388C39.7116 64.6004 39.2783 64.5701 38.9897 64.5458C38.2735 64.4852 37.5631 64.3512 36.847 64.3002C36.3968 64.2681 35.9394 64.3332 35.4851 64.3521C35.308 64.3593 35.0878 64.4296 34.9592 64.3521C33.8924 63.7047 32.7038 63.9473 31.5774 63.9323C29.7626 63.9079 27.9419 64.0098 26.1298 64.1397C24.3608 64.2663 22.6912 63.952 21.0792 63.2582C18.9276 62.3318 16.7302 61.5663 14.4381 61.0419C13.1533 60.7478 11.8612 60.4275 10.7507 59.5703C9.75641 58.8032 8.56889 58.7856 7.38226 59.2189C6.79216 59.4346 6.18552 59.6053 5.46293 59.8355C5.65783 58.842 6.13266 58.2005 6.87246 57.7462Z" fill="white" fill-opacity="0.2"/>
</g>
<g clip-path="url(#clip1_1_2616)">
<path d="M46.6444 111.271C46.7944 111.179 46.9534 111.096 47.1174 111.032C47.4645 110.898 47.703 110.653 47.79 110.303C47.9174 109.789 48.3151 109.563 48.7462 109.507C49.5752 109.398 50.0926 108.847 50.5344 108.27C50.8639 107.84 50.9885 107.248 50.7841 106.67C50.7371 106.536 50.7332 106.429 50.7871 106.273C50.8547 106.077 50.7794 105.829 50.7547 105.606C50.5118 103.409 49.6455 101.445 48.4965 99.5885C48.3879 99.413 48.2793 99.2377 48.1696 99.0632C47.8878 98.6142 47.7718 98.1294 47.7056 97.5972C47.5655 96.4713 47.5233 95.3297 47.1805 94.23C46.8262 93.0934 46.8518 91.9349 47.0591 90.7644C47.1661 90.1598 47.1418 89.5329 47.2044 88.9188C47.3477 87.5103 47.6768 86.1489 48.3643 84.8996C48.6706 84.3429 49.0283 83.8136 49.3809 83.2838C49.5261 83.0655 49.698 82.8349 50.0283 82.9565C50.202 83.0205 50.4331 83.4626 50.4188 83.7028C50.4148 83.7708 50.381 83.8397 50.3882 83.9052C50.4032 84.0431 50.4359 84.179 50.4621 84.3157C50.501 84.5204 50.5522 84.7238 50.5763 84.9302C50.5985 85.121 50.593 85.3154 50.5979 85.5082C50.6036 85.7332 50.6199 85.9589 50.6085 86.183C50.5895 86.5552 50.5652 86.9118 50.7513 87.2706C50.8517 87.4645 50.7955 87.7344 50.8405 87.9639C50.888 88.2061 50.9773 88.4397 51.0392 88.6791C51.1324 89.0386 51.2352 89.397 51.3025 89.7617C51.4201 90.3962 51.4949 91.0391 51.6224 91.6716C51.7889 92.4976 51.9943 93.3158 52.1727 94.1396C52.2491 94.4921 52.293 94.8516 52.3649 95.2052C52.3896 95.3271 52.4592 95.4393 52.4998 95.5587C52.5694 95.7643 52.6334 95.9718 52.6964 96.1795C52.7075 96.216 52.6915 96.2628 52.707 96.2959C52.9113 96.728 53.1199 97.1577 53.3255 97.5891C53.4373 97.8234 53.5463 98.0592 53.6544 98.2951C53.6747 98.3392 53.6808 98.3899 53.7015 98.4339C54.1372 99.3511 54.6017 100.256 55.0033 101.188C55.4466 102.217 55.7469 103.286 55.8788 104.411C56.0135 105.558 56.2384 106.694 56.4524 107.83C56.5181 108.179 56.6696 108.514 56.7988 108.848C56.8822 109.064 57.188 109.179 57.4263 109.123C58.6887 108.829 59.9553 108.51 61.2569 108.533C62.0363 108.546 62.8114 108.74 63.5906 108.837C65.9481 109.13 68.3052 109.426 70.665 109.699C72.3276 109.892 73.9937 109.928 75.6565 109.679C75.7437 109.666 75.8322 109.661 75.9205 109.659C75.946 109.658 75.9721 109.679 76.0624 109.717C75.9358 109.807 75.8586 109.898 75.7642 109.922C75.347 110.027 74.9262 110.119 74.5041 110.202C74.1507 110.272 73.786 110.295 73.4393 110.388C72.6414 110.603 71.8485 110.518 71.0477 110.425C70.3794 110.347 69.707 110.286 69.0351 110.268C68.7805 110.261 68.526 110.421 68.2649 110.461C67.9808 110.505 67.6891 110.504 67.4006 110.511C67.071 110.52 66.741 110.514 66.4115 110.518C66.0589 110.522 65.6992 110.487 65.3559 110.547C64.8 110.644 64.2544 110.802 63.7054 110.938C63.1579 111.073 62.6118 111.215 62.0635 111.349C61.6768 111.443 61.2878 111.53 60.8989 111.615C60.8438 111.627 60.7726 111.635 60.7266 111.611C60.5142 111.499 60.3969 111.577 60.3487 111.824C60.1022 111.749 59.8799 111.682 59.6574 111.615C59.6402 111.641 59.6229 111.667 59.6058 111.693C60.5489 112.325 61.4752 112.985 62.4399 113.583C63.4112 114.185 64.5202 114.448 65.6419 114.658C65.6368 114.705 65.6316 114.751 65.6264 114.799C65.3761 114.836 65.1148 114.939 64.8781 114.898C64.2974 114.798 63.7284 114.631 63.1542 114.493C63.0395 114.465 62.9433 114.41 62.8278 114.556C62.7654 114.636 62.5527 114.621 62.411 114.609C62.0594 114.579 61.7107 114.513 61.3591 114.488C61.1381 114.473 60.9136 114.505 60.6906 114.514C60.6036 114.517 60.4955 114.552 60.4324 114.514C59.9087 114.196 59.3252 114.315 58.7722 114.308C57.8814 114.296 56.9876 114.346 56.098 114.41C55.2296 114.472 54.4099 114.317 53.6186 113.977C52.5624 113.522 51.4836 113.146 50.3584 112.889C49.7277 112.744 49.0934 112.587 48.5482 112.166C48.0601 111.79 47.4772 111.781 46.8946 111.994C46.6049 112.1 46.3071 112.184 45.9524 112.297C46.0481 111.809 46.2812 111.494 46.6444 111.271Z" fill="white" fill-opacity="0.2"/>
</g>
<g clip-path="url(#clip2_1_2616)">
<path d="M1.62942 102.979C1.77948 102.887 1.93848 102.804 2.10246 102.74C2.44957 102.606 2.68807 102.361 2.77508 102.011C2.9024 101.498 3.30019 101.271 3.73127 101.215C4.56025 101.107 5.07768 100.556 5.51942 99.9784C5.84897 99.5477 5.97353 98.9564 5.76919 98.378C5.7221 98.2444 5.71829 98.1367 5.77212 97.9806C5.83975 97.7853 5.76444 97.5376 5.73971 97.3136C5.49689 95.1169 4.63054 93.1535 3.4815 91.2966C3.3729 91.1211 3.2643 90.9458 3.15465 90.7713C2.87286 90.3223 2.75687 89.8375 2.69061 89.3053C2.55054 88.1794 2.50837 87.0378 2.16556 85.9381C1.81122 84.8015 1.83689 83.643 2.04415 82.4725C2.15115 81.8679 2.1268 81.241 2.18947 80.6269C2.33274 79.2184 2.66185 77.857 3.34933 76.6077C3.65569 76.051 4.01334 75.5217 4.36591 74.9919C4.51117 74.7736 4.68304 74.543 5.01331 74.6646C5.187 74.7286 5.41811 75.1707 5.40387 75.4109C5.39984 75.4789 5.36605 75.5478 5.37322 75.6133C5.3883 75.7512 5.42098 75.8871 5.44715 76.0238C5.48607 76.2285 5.53725 76.4319 5.56133 76.6383C5.58357 76.8291 5.578 77.0235 5.58297 77.2163C5.5886 77.4413 5.605 77.667 5.59351 77.8911C5.57458 78.2633 5.55028 78.6199 5.73634 78.9787C5.83677 79.1726 5.78051 79.4425 5.82556 79.672C5.87304 79.9142 5.96232 80.1478 6.02421 80.3872C6.11746 80.7467 6.22021 81.1051 6.28756 81.4698C6.40516 82.1043 6.47991 82.7472 6.60745 83.3797C6.77396 84.2057 6.97935 85.0239 7.15779 85.8477C7.23414 86.2002 7.27809 86.5597 7.34992 86.9133C7.37465 87.0352 7.44427 87.1474 7.4848 87.2668C7.55442 87.4724 7.6184 87.6799 7.68146 87.8876C7.6925 87.9241 7.67654 87.9709 7.69205 88.004C7.89633 88.4361 8.10497 88.8658 8.31058 89.2972C8.42232 89.5315 8.53136 89.7673 8.63946 90.0032C8.65973 90.0473 8.66586 90.098 8.68656 90.142C9.12222 91.0592 9.5867 91.9643 9.98836 92.8962C10.4316 93.9248 10.7319 94.994 10.8639 96.1192C10.9986 97.2658 11.2234 98.4026 11.4374 99.5384C11.5032 99.8873 11.6546 100.222 11.7839 100.556C11.8672 100.772 12.1731 100.887 12.4114 100.831C13.6737 100.537 14.9404 100.218 16.2419 100.241C17.0213 100.254 17.7964 100.448 18.5756 100.545C20.9332 100.838 23.2903 101.134 25.6501 101.407C27.3127 101.6 28.9787 101.636 30.6416 101.387C30.7288 101.374 30.8173 101.369 30.9056 101.367C30.931 101.366 30.9572 101.387 31.0475 101.425C30.9209 101.515 30.8436 101.606 30.7492 101.63C30.3321 101.735 29.9113 101.827 29.4891 101.91C29.1357 101.98 28.771 102.003 28.4243 102.096C27.6265 102.311 26.8336 102.226 26.0328 102.133C25.3645 102.056 24.6921 101.994 24.0201 101.976C23.7656 101.969 23.511 102.129 23.2499 102.169C22.9659 102.213 22.6742 102.212 22.3856 102.219C22.0561 102.228 21.7261 102.222 21.3965 102.226C21.044 102.23 20.6842 102.195 20.3409 102.255C19.785 102.352 19.2394 102.51 18.6905 102.646C18.1429 102.781 17.5968 102.924 17.0486 103.057C16.6618 103.151 16.2728 103.238 15.884 103.323C15.8288 103.335 15.7576 103.343 15.7117 103.319C15.4992 103.207 15.3819 103.285 15.3337 103.532C15.0872 103.458 14.8649 103.39 14.6424 103.323C14.6252 103.349 14.6079 103.375 14.5908 103.401C15.534 104.033 16.4602 104.693 17.425 105.291C18.3963 105.893 19.5052 106.156 20.627 106.366C20.6218 106.413 20.6166 106.46 20.6114 106.507C20.3612 106.544 20.0998 106.647 19.8631 106.606C19.2824 106.506 18.7134 106.339 18.1392 106.201C18.0245 106.173 17.9284 106.118 17.8128 106.265C17.7504 106.344 17.5378 106.329 17.3961 106.317C17.0445 106.287 16.6957 106.222 16.3442 106.196C16.1232 106.181 15.8986 106.213 15.6756 106.222C15.5887 106.225 15.4806 106.26 15.4175 106.222C14.8937 105.904 14.3103 106.023 13.7573 106.016C12.8664 106.004 11.9726 106.054 11.083 106.118C10.2146 106.18 9.39496 106.026 8.60363 105.685C7.5474 105.23 6.46865 104.854 5.34347 104.597C4.71274 104.453 4.07843 104.295 3.53329 103.875C3.04517 103.498 2.46221 103.489 1.87968 103.702C1.59 103.808 1.29219 103.892 0.937466 104.005C1.03314 103.517 1.26624 103.202 1.62942 102.979Z" fill="white" fill-opacity="0.2"/>
</g>
<defs>
<clipPath id="clip0_1_2616">
<rect width="65.1539" height="65.1539" fill="white" transform="matrix(-1 0 0 1 68.7076 0)"/>
</clipPath>
<clipPath id="clip1_1_2616">
<rect width="31.9846" height="31.9846" fill="white" transform="matrix(-1 0 0 1 76.9998 82.9229)"/>
</clipPath>
<clipPath id="clip2_1_2616">
<rect width="31.9846" height="31.9846" fill="white" transform="matrix(-1 0 0 1 31.9844 74.631)"/>
</clipPath>
</defs>
</svg>
