<svg width="42" height="46" viewBox="0 0 42 46" fill="none" xmlns="http://www.w3.org/2000/svg">
<path d="M39.0395 28.2767L29.732 22.9498L39.0395 17.6228C41.2102 16.3793 41.9544 13.6282 40.7002 11.476C39.4461 9.32156 36.6713 8.58594 34.5006 9.82715L25.1931 15.1564V4.50022C25.1931 2.01553 23.1603 0 20.6543 0C18.1482 0 16.1154 2.01553 16.1154 4.50022V15.1564L6.80791 9.82715C4.63723 8.58367 1.86245 9.32156 0.608284 11.476C-0.643584 13.6282 0.0983487 16.3793 2.26902 17.6228L11.5765 22.9498L2.26902 28.2767C0.0983487 29.5202 -0.643584 32.2713 0.608284 34.4235C1.44899 35.8674 2.9742 36.6759 4.54306 36.6759C5.31255 36.6759 6.09354 36.48 6.80791 36.0724L16.1154 30.7431V41.3993C16.1154 43.884 18.1482 45.8995 20.6543 45.8995C23.1603 45.8995 25.1931 43.884 25.1931 41.3993V30.7431L34.5006 36.0724C35.215 36.48 35.996 36.6759 36.7655 36.6759C38.3343 36.6759 39.8595 35.8674 40.7002 34.4235C41.9544 32.2713 41.2102 29.5202 39.0395 28.2767Z" fill="white" fill-opacity="0.2"/>
</svg>
